<svg version="1.0" xmlns="http://www.w3.org/2000/svg"
 width="30" height="30" viewBox="0 0 512.000000 512.000000"
 preserveAspectRatio="xMidYMid meet">

<g transform="translate(0.000000,512.000000) scale(0.100000,-0.100000)"
fill="#000000" stroke="none">
<path d="M980 5105 c-324 -66 -577 -322 -636 -645 -20 -110 -20 -3689 0 -3800
30 -166 112 -316 239 -437 123 -116 265 -187 427 -212 55 -9 396 -11 1266 -9
l1191 3 49 30 c30 19 60 49 79 79 27 44 30 58 30 126 0 68 -3 82 -30 126 -19
30 -49 60 -79 79 l-49 30 -1211 5 -1211 5 -52 27 c-70 37 -120 89 -152 157
l-26 56 0 1835 0 1835 26 56 c32 68 82 120 152 157 l52 27 1211 5 1211 5 49
30 c30 19 60 49 79 79 27 44 30 58 30 126 0 68 -3 82 -30 126 -19 30 -49 60
-79 79 l-49 30 -1211 2 c-967 1 -1224 -1 -1276 -12z"/>
<path d="M3304 3916 c-88 -41 -134 -118 -134 -222 1 -94 15 -113 418 -516
l376 -378 -958 0 c-724 0 -969 -3 -1000 -12 -86 -26 -166 -136 -166 -228 0
-92 80 -202 166 -228 31 -9 276 -12 1000 -12 l958 0 -376 -377 c-206 -208
-384 -394 -394 -413 -13 -25 -18 -57 -19 -111 0 -67 3 -81 30 -124 56 -91 166
-133 272 -105 45 12 90 54 656 619 356 354 617 623 630 646 30 55 29 155 0
210 -13 23 -276 293 -630 647 -657 655 -625 628 -733 628 -26 0 -66 -10 -96
-24z"/>
</g>
</svg>
