<svg xmlns="http://www.w3.org/2000/svg" xmlns:xlink="http://www.w3.org/1999/xlink" width="124" zoomAndPan="magnify" viewBox="0 0 93 30.000001" height="40" preserveAspectRatio="xMidYMid meet" version="1.0"><defs><g/><clipPath id="id1"><path d="M 1.5 8 L 11 8 L 11 18 L 1.5 18 Z M 1.5 8 " clip-rule="nonzero"/></clipPath><clipPath id="id2"><path d="M 82 8 L 91.5 8 L 91.5 18 L 82 18 Z M 82 8 " clip-rule="nonzero"/></clipPath></defs><g clip-path="url(#id1)"><g fill="#ffffff" fill-opacity="1"><g transform="translate(1.051657, 19.176649)"><g><path d="M 0.90625 -7.21875 L 9.21875 -10.578125 L 9.21875 -8.421875 L 3.78125 -6.296875 L 9.21875 -4.203125 L 9.21875 -2.046875 L 0.90625 -5.421875 Z M 0.90625 -7.21875 "/></g></g></g></g><g fill="#7ed957" fill-opacity="1"><g transform="translate(10.334095, 19.176649)"><g><path d="M 4.296875 -8.015625 C 4.742188 -8.015625 5.179688 -7.960938 5.609375 -7.859375 C 6.046875 -7.765625 6.375 -7.664062 6.59375 -7.5625 L 6.90625 -7.40625 L 6.03125 -5.65625 C 5.425781 -5.976562 4.847656 -6.140625 4.296875 -6.140625 C 3.992188 -6.140625 3.78125 -6.101562 3.65625 -6.03125 C 3.53125 -5.96875 3.46875 -5.847656 3.46875 -5.671875 C 3.46875 -5.628906 3.472656 -5.585938 3.484375 -5.546875 C 3.492188 -5.503906 3.507812 -5.460938 3.53125 -5.421875 C 3.5625 -5.390625 3.585938 -5.359375 3.609375 -5.328125 C 3.640625 -5.304688 3.6875 -5.28125 3.75 -5.25 C 3.8125 -5.21875 3.859375 -5.191406 3.890625 -5.171875 C 3.929688 -5.160156 3.988281 -5.140625 4.0625 -5.109375 C 4.144531 -5.085938 4.207031 -5.066406 4.25 -5.046875 C 4.289062 -5.035156 4.359375 -5.015625 4.453125 -4.984375 C 4.554688 -4.953125 4.628906 -4.929688 4.671875 -4.921875 C 4.992188 -4.828125 5.269531 -4.722656 5.5 -4.609375 C 5.726562 -4.503906 5.972656 -4.351562 6.234375 -4.15625 C 6.492188 -3.96875 6.691406 -3.722656 6.828125 -3.421875 C 6.972656 -3.128906 7.046875 -2.800781 7.046875 -2.4375 C 7.046875 -0.65625 5.816406 0.234375 3.359375 0.234375 C 2.796875 0.234375 2.265625 0.148438 1.765625 -0.015625 C 1.265625 -0.191406 0.90625 -0.367188 0.6875 -0.546875 L 0.34375 -0.8125 L 1.4375 -2.65625 C 1.519531 -2.582031 1.625 -2.5 1.75 -2.40625 C 1.882812 -2.3125 2.125 -2.179688 2.46875 -2.015625 C 2.8125 -1.847656 3.113281 -1.765625 3.375 -1.765625 C 3.925781 -1.765625 4.203125 -1.953125 4.203125 -2.328125 C 4.203125 -2.492188 4.128906 -2.625 3.984375 -2.71875 C 3.847656 -2.820312 3.609375 -2.929688 3.265625 -3.046875 C 2.929688 -3.171875 2.664062 -3.285156 2.46875 -3.390625 C 1.988281 -3.640625 1.601562 -3.921875 1.3125 -4.234375 C 1.03125 -4.554688 0.890625 -4.984375 0.890625 -5.515625 C 0.890625 -6.304688 1.195312 -6.921875 1.8125 -7.359375 C 2.425781 -7.796875 3.253906 -8.015625 4.296875 -8.015625 Z M 4.296875 -8.015625 "/></g></g></g><g fill="#7ed957" fill-opacity="1"><g transform="translate(17.038179, 19.176649)"><g><path d="M 8.796875 -3.53125 L 3.140625 -3.53125 C 3.140625 -2.976562 3.316406 -2.566406 3.671875 -2.296875 C 4.023438 -2.035156 4.410156 -1.90625 4.828125 -1.90625 C 5.265625 -1.90625 5.609375 -1.960938 5.859375 -2.078125 C 6.109375 -2.203125 6.398438 -2.4375 6.734375 -2.78125 L 8.671875 -1.8125 C 7.859375 -0.445312 6.507812 0.234375 4.625 0.234375 C 3.457031 0.234375 2.453125 -0.164062 1.609375 -0.96875 C 0.765625 -1.78125 0.34375 -2.753906 0.34375 -3.890625 C 0.34375 -5.023438 0.765625 -5.992188 1.609375 -6.796875 C 2.453125 -7.609375 3.457031 -8.015625 4.625 -8.015625 C 5.863281 -8.015625 6.867188 -7.65625 7.640625 -6.9375 C 8.421875 -6.226562 8.8125 -5.210938 8.8125 -3.890625 C 8.8125 -3.703125 8.804688 -3.582031 8.796875 -3.53125 Z M 3.21875 -5.015625 L 6.1875 -5.015625 C 6.125 -5.421875 5.960938 -5.726562 5.703125 -5.9375 C 5.441406 -6.15625 5.109375 -6.265625 4.703125 -6.265625 C 4.265625 -6.265625 3.910156 -6.148438 3.640625 -5.921875 C 3.378906 -5.691406 3.238281 -5.390625 3.21875 -5.015625 Z M 3.21875 -5.015625 "/></g></g></g><g fill="#7ed957" fill-opacity="1"><g transform="translate(25.426075, 19.176649)"><g><path d="M 0.90625 0 L 0.90625 -13.0625 L 3.59375 -13.0625 L 3.59375 0 Z M 0.90625 0 "/></g></g></g><g fill="#7ed957" fill-opacity="1"><g transform="translate(29.172097, 19.176649)"><g><path d="M 1.359375 -7.796875 L 1.359375 -9.453125 C 1.367188 -10.609375 1.640625 -11.535156 2.171875 -12.234375 C 2.710938 -12.941406 3.460938 -13.296875 4.421875 -13.296875 C 4.828125 -13.296875 5.210938 -13.234375 5.578125 -13.109375 C 5.953125 -12.992188 6.21875 -12.875 6.375 -12.75 L 6.640625 -12.59375 L 5.703125 -10.6875 C 5.453125 -10.832031 5.179688 -10.90625 4.890625 -10.90625 C 4.554688 -10.90625 4.332031 -10.789062 4.21875 -10.5625 C 4.113281 -10.332031 4.0625 -9.9375 4.0625 -9.375 L 4.0625 -7.796875 L 5.84375 -7.796875 L 5.84375 -5.734375 L 4.0625 -5.734375 L 4.0625 0 L 1.359375 0 L 1.359375 -5.734375 L 0.25 -5.734375 L 0.25 -7.796875 Z M 1.359375 -7.796875 "/></g></g></g><g fill="#7ed957" fill-opacity="1"><g transform="translate(34.101349, 19.176649)"><g><path d="M 5.703125 0 L 3.875 0 L -0.296875 -7.796875 L 2.796875 -7.796875 L 4.6875 -3.578125 L 6.5625 -7.796875 L 8.40625 -7.796875 L 10.28125 -3.578125 L 12.1875 -7.796875 L 15.28125 -7.796875 L 11.109375 0 L 9.28125 0 L 7.484375 -4.03125 Z M 5.703125 0 "/></g></g></g><g fill="#7ed957" fill-opacity="1"><g transform="translate(48.299165, 19.176649)"><g><path d="M 1.640625 -0.921875 C 0.773438 -1.691406 0.34375 -2.679688 0.34375 -3.890625 C 0.34375 -5.097656 0.789062 -6.085938 1.6875 -6.859375 C 2.59375 -7.628906 3.710938 -8.015625 5.046875 -8.015625 C 6.347656 -8.015625 7.445312 -7.625 8.34375 -6.84375 C 9.238281 -6.070312 9.6875 -5.085938 9.6875 -3.890625 C 9.6875 -2.691406 9.25 -1.703125 8.375 -0.921875 C 7.5 -0.148438 6.390625 0.234375 5.046875 0.234375 C 3.648438 0.234375 2.515625 -0.148438 1.640625 -0.921875 Z M 3.71875 -5.203125 C 3.375 -4.859375 3.203125 -4.414062 3.203125 -3.875 C 3.203125 -3.34375 3.367188 -2.90625 3.703125 -2.5625 C 4.035156 -2.226562 4.476562 -2.0625 5.03125 -2.0625 C 5.550781 -2.0625 5.976562 -2.234375 6.3125 -2.578125 C 6.65625 -2.921875 6.828125 -3.359375 6.828125 -3.890625 C 6.828125 -4.421875 6.648438 -4.859375 6.296875 -5.203125 C 5.953125 -5.546875 5.53125 -5.71875 5.03125 -5.71875 C 4.507812 -5.71875 4.070312 -5.546875 3.71875 -5.203125 Z M 3.71875 -5.203125 "/></g></g></g><g fill="#7ed957" fill-opacity="1"><g transform="translate(57.56689, 19.176649)"><g><path d="M 0.90625 0 L 0.90625 -7.796875 L 3.59375 -7.796875 L 3.59375 -6.671875 L 3.625 -6.671875 C 3.644531 -6.710938 3.675781 -6.757812 3.71875 -6.8125 C 3.769531 -6.875 3.867188 -6.976562 4.015625 -7.125 C 4.171875 -7.28125 4.332031 -7.421875 4.5 -7.546875 C 4.675781 -7.671875 4.898438 -7.78125 5.171875 -7.875 C 5.453125 -7.96875 5.734375 -8.015625 6.015625 -8.015625 C 6.304688 -8.015625 6.59375 -7.972656 6.875 -7.890625 C 7.164062 -7.816406 7.375 -7.738281 7.5 -7.65625 L 7.71875 -7.53125 L 6.59375 -5.25 C 6.257812 -5.539062 5.789062 -5.6875 5.1875 -5.6875 C 4.863281 -5.6875 4.585938 -5.613281 4.359375 -5.46875 C 4.128906 -5.320312 3.960938 -5.144531 3.859375 -4.9375 C 3.765625 -4.738281 3.695312 -4.566406 3.65625 -4.421875 C 3.613281 -4.285156 3.59375 -4.175781 3.59375 -4.09375 L 3.59375 0 Z M 0.90625 0 "/></g></g></g><g fill="#7ed957" fill-opacity="1"><g transform="translate(64.361991, 19.176649)"><g><path d="M 9.8125 -7.796875 L 6.109375 -4.0625 L 10.171875 0 L 6.71875 0 L 3.59375 -3.109375 L 3.59375 0 L 0.90625 0 L 0.90625 -13.0625 L 3.59375 -13.0625 L 3.59375 -5.078125 L 6.3125 -7.796875 Z M 9.8125 -7.796875 "/></g></g></g><g fill="#ffffff" fill-opacity="1"><g transform="translate(73.393606, 19.176649)"><g><path d="M 8.9375 -13.0625 L 2.671875 1.828125 L 0.34375 1.828125 L 6.609375 -13.0625 Z M 8.9375 -13.0625 "/></g></g></g><g clip-path="url(#id2)"><g fill="#ffffff" fill-opacity="1"><g transform="translate(81.902853, 19.176649)"><g><path d="M 0.828125 -4.203125 L 6.265625 -6.296875 L 0.828125 -8.421875 L 0.828125 -10.578125 L 9.140625 -7.21875 L 9.140625 -5.421875 L 0.828125 -2.046875 Z M 0.828125 -4.203125 "/></g></g></g></g></svg>